<?xml version="1.0" standalone="no"?>
<!DOCTYPE svg PUBLIC "-//W3C//DTD SVG 20010904//EN"
 "http://www.w3.org/TR/2001/REC-SVG-20010904/DTD/svg10.dtd">
<svg version="1.0" xmlns="http://www.w3.org/2000/svg"
 width="512.000000pt" height="512.000000pt" viewBox="0 0 512.000000 512.000000"
 preserveAspectRatio="xMidYMid meet">

<g transform="translate(0.000000,512.000000) scale(0.100000,-0.100000)"
fill="#000000" stroke="none">
<path d="M988 4839 c-114 -14 -259 -53 -346 -95 -107 -51 -215 -159 -266 -266
-44 -92 -81 -230 -95 -360 -7 -59 -11 -399 -11 -889 0 -654 2 -814 15 -909 57
-432 241 -623 667 -690 40 -7 236 -14 441 -17 l367 -5 0 -299 0 -299 -269 0
c-262 0 -269 -1 -301 -22 -48 -33 -72 -70 -77 -120 -7 -58 23 -118 74 -149
l38 -24 613 -3 c507 -2 612 -5 612 -16 0 -8 18 -49 40 -93 75 -149 206 -246
395 -289 74 -18 133 -19 750 -19 663 0 671 0 755 23 127 33 205 75 281 151 74
74 116 152 151 276 l23 80 3 1090 c3 1111 1 1176 -35 1305 -51 184 -182 321
-365 383 -16 6 -18 22 -18 154 -1 735 -150 990 -638 1091 -68 14 -233 16
-1402 18 -731 1 -1359 -2 -1402 -7z m2793 -331 c90 -22 156 -55 202 -101 87
-87 115 -210 124 -549 l6 -227 -579 -4 c-558 -3 -582 -4 -663 -26 -331 -86
-470 -313 -471 -768 l0 -93 -906 0 -905 0 4 703 c4 761 5 774 60 883 61 119
157 170 372 197 17 3 629 4 1360 3 1188 -2 1337 -4 1396 -18z m529 -1220 c109
-29 166 -78 197 -170 17 -49 18 -128 21 -1135 2 -927 0 -1092 -12 -1153 -27
-130 -72 -183 -185 -218 -51 -15 -118 -17 -696 -17 -599 0 -644 1 -709 19 -55
15 -79 28 -112 62 -94 93 -97 150 -86 1399 10 1072 8 1039 64 1121 40 58 125
92 268 108 19 2 296 3 615 1 474 -2 590 -5 635 -17z m-1910 -1113 l0 -245
-629 0 c-359 0 -673 4 -732 10 -309 31 -411 130 -442 428 l-6 52 904 0 905 0
0 -245z m0 -865 l0 -300 -160 0 -160 0 0 300 0 300 160 0 160 0 0 -300z"/>
<path d="M3513 3006 c-104 -34 -194 -114 -241 -214 -24 -50 -27 -70 -27 -157
0 -91 3 -106 31 -165 91 -192 299 -274 500 -199 44 17 76 39 125 88 87 88 113
150 114 276 0 81 -4 97 -32 157 -39 83 -108 154 -188 193 -49 25 -73 30 -149
32 -57 2 -107 -2 -133 -11z m155 -322 c45 -31 18 -114 -37 -114 -48 0 -78 41
-62 84 17 44 60 57 99 30z"/>
<path d="M3515 2099 c-197 -44 -351 -162 -436 -334 -69 -139 -85 -279 -50
-417 38 -147 115 -264 229 -348 393 -290 936 -48 987 440 24 237 -119 492
-336 599 -128 63 -278 86 -394 60z m231 -339 c104 -44 166 -139 172 -260 4
-69 1 -80 -30 -140 -55 -106 -143 -160 -260 -160 -74 0 -138 24 -192 71 -125
110 -133 303 -18 422 86 89 215 115 328 67z"/>
</g>
</svg>
