<?xml version="1.0" standalone="no"?>
<!DOCTYPE svg PUBLIC "-//W3C//DTD SVG 20010904//EN"
 "http://www.w3.org/TR/2001/REC-SVG-20010904/DTD/svg10.dtd">
<svg version="1.0" xmlns="http://www.w3.org/2000/svg"
 width="512.000000pt" height="512.000000pt" viewBox="0 0 512.000000 512.000000"
 preserveAspectRatio="xMidYMid meet">

<g transform="translate(0.000000,512.000000) scale(0.100000,-0.100000)"
fill="#000000" stroke="none">
<path d="M2315 5109 c-408 -34 -719 -158 -796 -316 -20 -41 -23 -62 -21 -138
6 -269 125 -532 327 -723 l82 -78 -43 -335 c-37 -284 -47 -336 -63 -349 -10
-8 -61 -44 -112 -80 -115 -80 -332 -295 -412 -407 -149 -210 -197 -313 -204
-445 -10 -160 34 -290 135 -400 66 -71 97 -92 212 -140 242 -102 497 -161 815
-189 72 -6 131 -12 131 -12 1 -1 21 -317 44 -702 32 -527 46 -708 58 -733 36
-80 148 -80 184 0 12 25 26 206 58 733 23 385 43 701 44 702 0 0 60 6 131 12
318 28 573 87 815 189 115 48 146 69 212 140 101 110 145 240 135 400 -7 132
-55 235 -204 445 -80 112 -297 327 -412 407 -51 36 -102 72 -112 80 -16 13
-26 65 -63 349 l-43 335 82 78 c202 191 321 454 327 723 3 111 -19 163 -95
230 -196 172 -708 266 -1212 224z"/>
</g>
</svg>
