<?xml version="1.0" standalone="no"?>
<!DOCTYPE svg PUBLIC "-//W3C//DTD SVG 20010904//EN"
 "http://www.w3.org/TR/2001/REC-SVG-20010904/DTD/svg10.dtd">
<svg version="1.0" xmlns="http://www.w3.org/2000/svg"
 width="512.000000pt" height="512.000000pt" viewBox="0 0 512.000000 512.000000"
 preserveAspectRatio="xMidYMid meet">

<g transform="translate(0.000000,512.000000) scale(0.100000,-0.100000)"
fill="#000000" stroke="none">
<path d="M3917 4682 l-177 -177 200 -200 c110 -110 200 -203 200 -207 0 -4
-638 -9 -1417 -11 -1578 -3 -1444 3 -1669 -72 -501 -166 -887 -587 -1008
-1096 -23 -97 -46 -259 -46 -329 l0 -30 254 0 253 0 8 82 c31 361 246 675 570
833 137 67 228 93 375 105 134 11 2680 14 2680 3 0 -4 -90 -98 -200 -208
l-200 -200 178 -178 177 -177 510 510 510 510 -510 510 -510 510 -178 -178z"/>
<path d="M4606 2483 c-21 -242 -129 -475 -297 -643 -88 -89 -173 -148 -290
-204 -115 -56 -219 -83 -364 -96 -128 -11 -2675 -14 -2675 -3 0 4 90 98 200
208 l200 200 -178 178 -177 177 -510 -510 -510 -510 510 -510 510 -510 177
177 178 178 -200 200 c-110 110 -200 203 -200 207 0 4 638 9 1417 11 l1418 3
105 26 c146 37 237 71 370 139 387 200 674 562 780 982 25 102 50 272 50 347
l0 30 -254 0 -253 0 -7 -77z"/>
</g>
</svg>
