<?xml version="1.0" standalone="no"?>
<!DOCTYPE svg PUBLIC "-//W3C//DTD SVG 20010904//EN"
 "http://www.w3.org/TR/2001/REC-SVG-20010904/DTD/svg10.dtd">
<svg version="1.0" xmlns="http://www.w3.org/2000/svg"
 width="512.000000pt" height="512.000000pt" viewBox="0 0 512.000000 512.000000"
 preserveAspectRatio="xMidYMid meet">

<g transform="translate(0.000000,512.000000) scale(0.100000,-0.100000)"
fill="#000000" stroke="none">
<path d="M4185 4671 c-47 -22 -99 -74 -114 -114 -16 -41 -13 -122 4 -165 10
-23 74 -96 167 -189 l151 -152 -494 -4 c-491 -4 -495 -4 -599 -29 -455 -112
-805 -388 -1009 -794 -105 -210 -161 -457 -161 -706 0 -38 -9 -115 -20 -170
-93 -456 -467 -795 -933 -847 -55 -6 -296 -11 -557 -11 -434 0 -463 -1 -498
-19 -162 -84 -162 -299 1 -383 37 -19 57 -19 600 -15 l562 3 105 26 c299 74
520 197 730 408 130 129 223 259 294 410 93 201 131 362 146 626 11 209 36
325 99 458 160 343 481 574 854 615 53 6 273 11 489 11 l393 0 -152 -152 c-83
-84 -159 -169 -169 -188 -11 -21 -18 -57 -18 -90 -1 -109 81 -199 189 -208
103 -8 106 -7 497 385 371 373 378 381 378 463 0 82 -7 90 -373 459 -233 233
-366 360 -392 372 -51 24 -119 24 -170 0z"/>
<path d="M125 4034 c-163 -88 -166 -301 -5 -384 33 -17 77 -19 565 -22 l530
-4 95 -26 c124 -34 205 -67 315 -130 76 -44 99 -53 150 -56 75 -4 136 25 180
87 24 34 30 54 33 111 4 61 1 75 -22 115 -60 101 -335 238 -606 301 -66 15
-145 18 -640 21 -504 2 -568 1 -595 -13z"/>
<path d="M4185 2111 c-47 -22 -99 -74 -114 -114 -16 -41 -13 -122 4 -165 10
-23 75 -96 168 -189 l152 -153 -390 0 c-215 0 -433 5 -485 10 -167 18 -308 66
-456 156 -67 41 -88 49 -140 52 -47 3 -70 0 -100 -16 -113 -58 -154 -178 -98
-290 20 -41 39 -61 92 -96 139 -91 296 -158 482 -204 104 -25 108 -25 599 -29
l493 -4 -159 -162 c-162 -165 -183 -196 -183 -268 0 -88 69 -179 154 -204 41
-13 61 -13 106 -4 55 11 55 11 413 368 197 196 365 368 373 383 22 41 28 108
14 158 -10 40 -48 82 -363 399 -232 233 -366 360 -392 372 -51 24 -119 24
-170 0z"/>
</g>
</svg>
